<?xml version="1.0" encoding="UTF-8" standalone="no"?><!DOCTYPE svg PUBLIC "-//W3C//DTD SVG 1.1//EN" "http://www.w3.org/Graphics/SVG/1.1/DTD/svg11.dtd"><svg width="100%" height="100%" viewBox="0 0 200 200" version="1.1" xmlns="http://www.w3.org/2000/svg" xmlns:xlink="http://www.w3.org/1999/xlink" xml:space="preserve" style="fill-rule:evenodd;clip-rule:evenodd;stroke-linejoin:round;stroke-miterlimit:1.41421;"><path d="M190,0l-180,0c-5.5,0 -10,4.5 -10,10l0,180c0,5.5 4.5,10 10,10l16.1,0c-1.7,-45.7 -0.1,-52.5 3.1,-57c3.9,-5.6 5.5,-6.3 11.4,-11c5,-4 3.2,-10.5 -0.4,-15.2c-2.2,-2.9 -5.3,-6.3 -7.7,-9.6c-1.5,-2.2 2.2,-15.1 3.6,-19.8c1.4,-4.7 3.8,-20 24.8,-24.1c7.9,-1.6 29.6,-2.7 44.5,-1.8c-0.1,-0.6 -0.3,-1.3 -0.4,-2c-0.3,-1.2 -0.5,-2.5 -0.8,-3.9c-0.3,-1.3 -0.6,-2.7 -0.9,-4.1c-0.3,-1.4 -0.7,-2.8 -1,-4.3c-0.4,-1.5 -0.7,-2.9 -1.2,-4.4c-0.8,-3 -1.8,-5.9 -3,-8.7c-0.6,-1.4 -1.2,-2.7 -1.9,-3.9c-0.7,-1.1 -1.4,-2.1 -2,-2.5c-0.1,-0.1 -0.2,-0.2 -0.3,-0.2l-0.1,0l0.2,0c0,0 0.1,0 0,0l-0.3,-0.1l-0.2,0l-0.4,-0.1l-0.5,0c-1.3,-0.1 -2.7,-0.1 -4.2,0c-2.9,0.2 -6,0.8 -9,1.5c-3,0.7 -5.9,1.6 -8.7,2.4c-1.2,0.4 -2.3,0.8 -3.4,1.1c0.1,0.9 0.2,1.7 0.2,2.6c0,13 -10.5,23.5 -23.5,23.5c-13,0 -23.4,-10.5 -23.4,-23.5c0,-13 10.5,-23.5 23.5,-23.5c8.7,0 16.3,4.7 20.4,11.8c1,-0.4 2.1,-0.8 3.2,-1.2c2.8,-1.1 5.9,-2.2 9.1,-3.2c3.3,-1 6.7,-2 10.5,-2.5c1.9,-0.3 3.9,-0.4 6.1,-0.3l0.8,0c0.3,0 0.6,0.1 0.8,0.1l0.7,0l0.3,0.1l0.1,0l0.3,0.1c0,0 0.2,0 0.3,0.1l0.4,0.1c0.6,0.2 0.9,0.3 1.3,0.5c0.4,0.2 0.7,0.3 1.1,0.5c0.7,0.4 1.3,0.8 1.9,1.2c1.1,0.9 2,1.8 2.7,2.7c0.8,0.9 1.4,1.8 2,2.7c1.2,1.8 2.1,3.5 2.9,5.2c1.6,3.4 2.9,6.8 3.9,10l1.5,4.8c0.5,1.6 0.8,3.1 1.2,4.6c0.2,0.7 0.4,1.5 0.5,2.2c0.2,0.7 0.3,1.4 0.5,2.1c0.3,1.4 0.6,2.8 0.9,4.1c0.4,2 0.7,3.9 1,5.6c22.4,2.2 39.5,5.1 47.2,12.8c11.3,11 20,61 14.3,124.5l10,0c5.5,0 10,-4.5 10,-10l0,-180c0,-5.5 -4.5,-10 -10,-10l0,0Z" style="fill:#2b2b2b;fill-rule:nonzero;"/><path d="M91.4,140.8c-1.3,3.6 -2.4,45.7 10,45.7c12.4,0 12.5,-43.2 12.1,-45.7c-0.4,-2.4 -20.8,-3.5 -22.1,0Zm-16.4,-40.8c-8.5,-1.2 -13.6,40.2 -1.7,42.6c11.2,2.2 10.1,-41.4 1.7,-42.6Zm55.8,0c-8.5,-1.2 -13.6,40.2 -1.7,42.6c11.2,2.2 10.2,-41.4 1.7,-42.6Z" style="fill:#2b2b2b;fill-rule:nonzero;"/></svg>