<?xml version="1.0" encoding="UTF-8" standalone="no"?><!DOCTYPE svg PUBLIC "-//W3C//DTD SVG 1.1//EN" "http://www.w3.org/Graphics/SVG/1.1/DTD/svg11.dtd"><svg width="100%" height="100%" viewBox="0 0 1764 400" version="1.1" xmlns="http://www.w3.org/2000/svg" xmlns:xlink="http://www.w3.org/1999/xlink" xml:space="preserve" xmlns:serif="http://www.serif.com/" style="fill-rule:evenodd;clip-rule:evenodd;stroke-linejoin:round;stroke-miterlimit:1.41421;"><g id="Icon"><path d="M397.186,193.133c3.749,3.749 3.749,9.825 0,13.573l-190.323,190.324c-3.747,3.747 -9.824,3.747 -13.572,0l-190.323,-190.324c-3.747,-3.748 -3.747,-9.824 0,-13.571l190.323,-190.324c3.749,-3.748 9.825,-3.748 13.572,0l190.323,190.322Z" style="fill:#fff;fill-rule:nonzero;"/><path d="M198.892,12.22c6.93,0 13.719,1.034 20.195,2.973l-12.381,-12.381c-3.749,-3.749 -9.824,-3.749 -13.572,0l-11.617,11.615c5.645,-1.446 11.48,-2.207 17.375,-2.207" style="fill:#3daf6a;fill-rule:nonzero;"/><path d="M198.923,42.243c22.205,0 40.202,18.001 40.202,40.205c0,22.203 -17.997,40.201 -40.202,40.201c-22.204,0 -40.201,-17.998 -40.201,-40.201c0,-22.204 17.997,-40.205 40.201,-40.205m0.032,90.228c11.748,0 23.175,-4.173 32.179,-11.75c21.103,-17.762 23.822,-49.38 6.06,-70.484c-9.527,-11.319 -23.488,-17.812 -38.301,-17.812c-11.748,0 -23.177,4.173 -32.178,11.751c-10.224,8.604 -16.485,20.674 -17.629,33.986c-1.145,13.312 2.963,26.273 11.566,36.494c9.528,11.321 23.489,17.815 38.303,17.815" style="fill:#3daf6a;fill-rule:nonzero;"/><path d="M76.825,245.431c-9.681,0 -19.142,2.84 -27.21,8.079l7.134,7.133c5.916,-3.424 12.78,-5.395 20.106,-5.395c22.204,0 40.203,18.003 40.203,40.206c0,7.326 -1.971,14.19 -5.394,20.105l7.142,7.141c11.665,-17.985 10.823,-42.225 -3.679,-59.456c-9.529,-11.321 -23.488,-17.813 -38.302,-17.813" style="fill:#3daf6a;fill-rule:nonzero;"/><path d="M281.302,295.457c0,-22.205 17.999,-40.206 40.202,-40.206c7.713,0 14.917,2.177 21.036,5.944l7.103,-7.103c-8.213,-5.593 -17.99,-8.658 -28.17,-8.658c-11.747,0 -23.176,4.173 -32.178,11.75c-10.224,8.605 -16.485,20.674 -17.628,33.987c-0.999,11.601 1.996,22.935 8.476,32.421l7.1,-7.1c-3.765,-6.12 -5.941,-13.322 -5.941,-21.035" style="fill:#3daf6a;fill-rule:nonzero;"/><path d="M397.028,193.133l-130.848,-130.85c7.755,26.006 0.015,55.338 -22.034,73.895c-0.489,0.412 -0.994,0.804 -1.493,1.201l24.365,42.34l-17.505,10.072l-24.304,-42.237c-8.292,3.348 -17.202,5.122 -26.254,5.122c-8.966,0 -17.708,-1.705 -25.828,-4.908l-24.068,41.999l-17.522,-10.041l24.077,-42.013c-3.771,-2.958 -7.273,-6.308 -10.421,-10.047c-12.078,-14.35 -17.845,-32.546 -16.237,-51.235c0.333,-3.877 0.994,-7.674 1.93,-11.372l-128.075,128.074c-3.748,3.749 -3.748,9.825 0,13.572l32.297,32.298c12.045,-8.903 26.688,-13.777 41.716,-13.777c8.967,0 17.707,1.703 25.827,4.907l20.278,-35.389l17.523,10.041l-20.288,35.401c3.772,2.958 7.275,6.308 10.422,10.047c8.739,10.383 13.932,22.582 15.735,35.119l43.947,0.002l0,20.195l-43.961,-0.002c-1.633,11.286 -5.991,22.206 -12.986,31.669l59.812,59.812c3.748,3.747 9.825,3.747 13.573,0l58.975,-58.976c-7.344,-9.604 -11.996,-20.741 -13.681,-32.501l-44.422,-0.002l0,-20.195l44.44,0.002c2.458,-17.064 10.968,-32.439 24.267,-43.63c0.698,-0.588 1.411,-1.155 2.129,-1.713l-20.266,-35.219l17.504,-10.072l20.332,35.33c8.073,-3.152 16.714,-4.823 25.489,-4.823c15.592,0 30.51,5.126 42.639,14.393l32.916,-32.917c3.749,-3.747 3.749,-9.825 0,-13.572" style="fill:#3daf6a;fill-rule:nonzero;"/></g><rect id="ArtBoard2" x="0" y="0" width="1763.96" height="399.84" style="fill:none;"/><path d="M560.038,195.165c0.002,-20.048 -2.503,-34.534 -7.514,-43.458c-5.011,-8.924 -14.363,-13.387 -28.054,-13.388c-4.89,0 -10.269,0.366 -16.136,1.099c-5.868,0.733 -10.269,1.344 -13.203,1.832l-0.013,154.761l-44.374,-0.003l0.015,-185.567c8.557,-2.444 19.743,-4.766 33.557,-6.965c13.813,-2.199 28.422,-3.298 43.824,-3.297c13.203,0.001 24.021,1.714 32.456,5.137c8.434,3.424 15.463,7.947 21.086,13.571c2.689,-1.956 6.112,-4.034 10.269,-6.234c4.156,-2.2 8.802,-4.216 13.936,-6.05c5.135,-1.833 10.575,-3.36 16.32,-4.582c5.746,-1.222 11.552,-1.833 17.42,-1.833c14.914,0.002 27.199,2.142 36.856,6.421c9.657,4.28 17.236,10.27 22.736,17.972c5.5,7.702 9.289,16.993 11.366,27.872c2.078,10.88 3.116,22.799 3.115,35.757l-0.009,107.819l-44.375,-0.003l0.008,-100.852c0.002,-20.048 -2.442,-34.534 -7.331,-43.458c-4.889,-8.924 -14.301,-13.387 -28.237,-13.388c-7.09,-0.001 -13.814,1.16 -20.17,3.482c-6.357,2.322 -11.125,4.583 -14.304,6.784c1.956,6.112 3.3,12.591 4.033,19.437c0.733,6.845 1.099,14.18 1.098,22.004l-0.008,105.985l-44.375,-0.003l0.008,-100.852Z" style="fill:#201f1f;fill-rule:nonzero;"/><path d="M918.71,104.245c-19.81,72.856 -42.797,138.866 -68.962,198.03c-4.891,11.002 -9.904,20.414 -15.039,28.237c-5.134,7.823 -10.88,14.302 -17.238,19.435c-6.357,5.134 -13.447,8.862 -21.271,11.184c-7.824,2.322 -16.87,3.483 -27.138,3.482c-6.846,-0.001 -13.631,-0.735 -20.354,-2.202c-6.723,-1.468 -11.796,-3.057 -15.219,-4.769l8.071,-35.572c8.801,3.423 17.481,5.135 26.038,5.136c11.491,0.001 20.476,-2.749 26.955,-8.249c6.48,-5.501 12.165,-13.996 17.055,-25.487c-13.933,-26.895 -27.317,-56.234 -40.15,-88.019c-12.833,-31.784 -24.26,-65.525 -34.281,-101.221l47.309,0.004c2.444,10.269 5.438,21.393 8.982,33.374c3.544,11.98 7.394,24.143 11.549,36.49c4.155,12.347 8.555,24.633 13.199,36.858c4.645,12.225 9.289,23.594 13.933,34.107c7.826,-21.758 15.162,-44.923 22.01,-69.494c6.848,-24.57 13.084,-48.346 18.709,-71.327l45.842,0.003Z" style="fill:#201f1f;fill-rule:nonzero;"/><path d="M1066.86,175.404c-5.625,21.514 -11.678,42.478 -18.159,62.893c-6.48,20.414 -12.9,39.667 -19.258,57.758l-36.306,-0.003c-4.889,-11.246 -10.023,-24.083 -15.4,-38.508c-5.378,-14.425 -10.755,-29.828 -16.132,-46.209c-5.378,-16.381 -10.755,-33.618 -16.132,-51.711c-5.378,-18.092 -10.633,-36.552 -15.765,-55.378l46.941,0.004c2.2,10.269 4.766,21.332 7.699,33.19c2.933,11.858 5.988,23.96 9.165,36.307c3.178,12.347 6.477,24.388 9.899,36.124c3.422,11.736 6.844,22.494 10.266,32.273c3.668,-11.246 7.275,-22.859 10.821,-34.838c3.546,-11.98 6.909,-23.959 10.089,-35.939c3.179,-11.98 6.175,-23.654 8.987,-35.022c2.813,-11.369 5.32,-22.065 7.521,-32.089l34.106,0.003c2.2,10.024 4.644,20.721 7.332,32.09c2.688,11.369 5.56,23.043 8.615,35.023c3.055,11.981 6.355,23.961 9.899,35.941c3.544,11.98 7.15,23.594 10.816,34.84c3.179,-9.779 6.481,-20.536 9.904,-32.271c3.424,-11.735 6.787,-23.776 10.088,-36.123c3.302,-12.346 6.42,-24.448 9.355,-36.305c2.935,-11.858 5.503,-22.921 7.704,-33.189l45.842,0.004c-5.136,18.825 -10.394,37.284 -15.774,55.375c-5.381,18.092 -10.761,35.328 -16.141,51.708c-5.38,16.38 -10.76,31.783 -16.14,46.207c-5.38,14.424 -10.637,27.26 -15.772,38.506l-35.94,-0.003c-6.355,-18.093 -12.894,-37.347 -19.616,-57.762c-6.721,-20.416 -12.893,-41.381 -18.514,-62.896Z" style="fill:#201f1f;fill-rule:nonzero;"/><path d="M1305.97,264.906c13.691,0.001 24.082,-0.732 31.172,-2.198l0.004,-49.142c-2.445,-0.734 -5.99,-1.467 -10.635,-2.201c-4.645,-0.734 -9.78,-1.101 -15.403,-1.102c-4.89,0 -9.84,0.366 -14.852,1.099c-5.013,0.733 -9.536,2.078 -13.57,4.033c-4.034,1.956 -7.274,4.706 -9.719,8.251c-2.445,3.545 -3.668,8.007 -3.668,13.385c-0.001,10.513 3.299,17.787 9.9,21.822c6.6,4.034 15.524,6.052 26.771,6.053Zm-3.654,-165.397c14.669,0.002 27.016,1.836 37.039,5.505c10.024,3.668 18.031,8.803 24.02,15.404c5.989,6.602 10.267,14.609 12.834,24.022c2.566,9.413 3.849,19.743 3.848,30.989l-0.01,116.254c-6.846,1.467 -17.175,3.239 -30.989,5.316c-13.814,2.077 -29.4,3.114 -46.759,3.113c-11.491,-0.001 -22.004,-1.102 -31.538,-3.303c-9.535,-2.201 -17.664,-5.747 -24.387,-10.638c-6.723,-4.89 -11.979,-11.247 -15.768,-19.071c-3.789,-7.824 -5.683,-17.481 -5.682,-28.972c0.001,-11.002 2.141,-20.293 6.42,-27.871c4.279,-7.579 10.086,-13.752 17.421,-18.519c7.335,-4.767 15.832,-8.189 25.489,-10.266c9.658,-2.078 19.743,-3.116 30.256,-3.115c4.889,0 10.024,0.306 15.402,0.918c5.379,0.612 11.124,1.651 17.237,3.119l0,-7.335c0.001,-5.134 -0.61,-10.024 -1.832,-14.669c-1.222,-4.646 -3.361,-8.741 -6.417,-12.286c-3.056,-3.546 -7.09,-6.296 -12.102,-8.253c-5.011,-1.956 -11.307,-2.935 -18.886,-2.935c-10.269,-0.001 -19.681,0.732 -28.239,2.198c-8.557,1.466 -15.525,3.177 -20.904,5.132l-5.498,-35.94c5.624,-1.955 13.814,-3.91 24.572,-5.866c10.757,-1.955 22.248,-2.932 34.473,-2.931Z" style="fill:#201f1f;fill-rule:nonzero;"/><path d="M1543.62,144.271c-3.667,-1.223 -8.74,-2.507 -15.219,-3.852c-6.479,-1.345 -13.997,-2.018 -22.554,-2.019c-4.89,-0.001 -10.085,0.488 -15.586,1.465c-5.501,0.978 -9.352,1.833 -11.553,2.567l-0.012,153.66l-44.375,-0.003l0.015,-182.633c8.558,-3.177 19.254,-6.172 32.09,-8.982c12.836,-2.811 27.077,-4.215 42.725,-4.214c2.933,0 6.356,0.184 10.268,0.551c3.912,0.367 7.824,0.856 11.735,1.468c3.912,0.611 7.702,1.345 11.369,2.201c3.667,0.856 6.601,1.651 8.801,2.385l-7.704,37.406Z" style="fill:#201f1f;fill-rule:nonzero;"/><path d="M1709.38,201.128c0.002,-19.804 -4.459,-35.207 -13.382,-46.21c-8.923,-11.002 -23.286,-16.504 -43.09,-16.506c-4.156,0 -8.496,0.183 -13.019,0.549c-4.523,0.366 -8.985,1.161 -13.386,2.383l-0.009,109.653c3.912,2.689 9.107,5.196 15.586,7.519c6.479,2.323 13.385,3.485 20.72,3.485c16.136,0.002 27.933,-5.498 35.391,-16.5c7.458,-11.001 11.187,-25.792 11.189,-44.373Zm45.475,-0.73c-0.001,14.669 -1.897,28.116 -5.688,40.34c-3.79,12.224 -9.231,22.737 -16.322,31.538c-7.091,8.801 -15.954,15.646 -26.59,20.535c-10.635,4.888 -22.677,7.332 -36.124,7.331c-9.046,-0.001 -17.358,-1.101 -24.937,-3.302c-7.579,-2.201 -13.813,-4.647 -18.703,-7.337l-0.006,74.447l-44.374,-0.004l0.02,-253.412c9.047,-2.444 20.171,-4.765 33.374,-6.965c13.202,-2.199 27.138,-3.298 41.807,-3.297c15.159,0.001 28.727,2.325 40.707,6.971c11.98,4.647 22.186,11.31 30.621,19.99c8.434,8.68 14.912,19.193 19.434,31.54c4.522,12.347 6.782,26.222 6.781,41.625Z" style="fill:#201f1f;fill-rule:nonzero;"/></svg>