<svg clip-rule="evenodd" fill-rule="evenodd" stroke-linejoin="round" stroke-miterlimit="2" viewBox="0 0 513 513" xmlns="http://www.w3.org/2000/svg"><path d="m0 0h512.028v512.028h-512.028z" fill="none"/><g fill-rule="nonzero"><path d="m453.188 249.213c3.749 3.749 3.749 9.825 0 13.573l-190.323 190.325c-3.748 3.747-9.825 3.747-13.573 0l-190.324-190.325c-3.747-3.748-3.747-9.824 0-13.572l190.324-190.325c3.749-3.747 9.825-3.747 13.573 0z" fill="#fff"/><path d="m254.894 68.299c6.929 0 13.718 1.034 20.195 2.973l-12.381-12.382c-3.749-3.749-9.825-3.749-13.573 0l-11.617 11.616c5.645-1.446 11.48-2.207 17.376-2.207" fill="#3daf6a"/><path d="m254.925 98.322c22.204 0 40.201 18.001 40.201 40.205 0 22.203-17.997 40.202-40.201 40.202-22.205 0-40.202-17.999-40.202-40.202 0-22.204 17.997-40.205 40.202-40.205m.031 90.229c11.748 0 23.176-4.174 32.18-11.751 21.102-17.762 23.821-49.38 6.06-70.484-9.528-11.319-23.489-17.812-38.302-17.812-11.748 0-23.177 4.173-32.178 11.751-10.224 8.604-16.485 20.674-17.629 33.987-1.145 13.311 2.963 26.272 11.566 36.494 9.528 11.32 23.489 17.815 38.303 17.815" fill="#3daf6a"/><path d="m132.825 301.511c-9.681 0-19.142 2.84-27.21 8.079l7.135 7.133c5.915-3.424 12.779-5.395 20.105-5.395 22.205 0 40.203 18.003 40.203 40.206 0 7.327-1.97 14.19-5.393 20.106l7.142 7.14c11.665-17.985 10.823-42.225-3.679-59.456-9.529-11.321-23.488-17.813-38.303-17.813" fill="#3daf6a"/><path d="m337.304 351.537c0-22.204 17.998-40.205 40.201-40.205 7.714 0 14.917 2.176 21.037 5.943l7.103-7.103c-8.213-5.593-17.99-8.658-28.17-8.658-11.748 0-23.177 4.173-32.178 11.751-10.224 8.604-16.485 20.674-17.629 33.987-.998 11.6 1.997 22.934 8.476 32.42l7.1-7.1c-3.765-6.119-5.94-13.322-5.94-21.035" fill="#3daf6a"/><path d="m453.03 249.213-130.848-130.851c7.755 26.006.014 55.338-22.035 73.896-.489.411-.994.803-1.493 1.2l24.366 42.341-17.505 10.071-24.305-42.236c-8.292 3.348-17.202 5.122-26.254 5.122-8.966 0-17.708-1.705-25.828-4.909l-24.068 42-17.522-10.041 24.077-42.013c-3.771-2.959-7.274-6.308-10.421-10.047-12.078-14.35-17.845-32.546-16.237-51.235.333-3.878.994-7.675 1.93-11.373l-128.076 128.075c-3.748 3.749-3.748 9.825 0 13.572l32.298 32.298c12.045-8.903 26.687-13.777 41.716-13.777 8.966 0 17.706 1.703 25.826 4.907l20.279-35.389 17.522 10.041-20.287 35.401c3.772 2.959 7.274 6.308 10.422 10.047 8.739 10.383 13.932 22.583 15.735 35.119l43.947.002v20.195l-43.962-.001c-1.632 11.286-5.99 22.206-12.985 31.668l59.812 59.813c3.748 3.747 9.825 3.747 13.573 0l58.976-58.976c-7.344-9.604-11.996-20.742-13.681-32.501l-44.422-.003v-20.195l44.439.003c2.458-17.065 10.969-32.439 24.267-43.63.699-.589 1.411-1.156 2.13-1.714l-20.266-35.219 17.503-10.072 20.332 35.33c8.074-3.152 16.715-4.823 25.49-4.823 15.592 0 30.51 5.126 42.639 14.393l32.916-32.917c3.75-3.747 3.75-9.825 0-13.572" fill="#3daf6a"/></g></svg>