<?xml version="1.0" encoding="UTF-8" standalone="no"?><!DOCTYPE svg PUBLIC "-//W3C//DTD SVG 1.1//EN" "http://www.w3.org/Graphics/SVG/1.1/DTD/svg11.dtd"><svg width="100%" height="100%" viewBox="0 0 200 200" version="1.1" xmlns="http://www.w3.org/2000/svg" xmlns:xlink="http://www.w3.org/1999/xlink" xml:space="preserve" style="fill-rule:evenodd;clip-rule:evenodd;stroke-linejoin:round;stroke-miterlimit:1.41421;"><g id="Ebene-2"><path d="M0,186.274c0,7.581 6.145,13.726 13.726,13.726l172.548,0c7.581,0 13.726,-6.145 13.726,-13.726l0,-172.548c0,-7.581 -6.145,-13.726 -13.726,-13.726l-172.548,0c-7.581,0 -13.726,6.145 -13.726,13.726l0,172.548Z" style="fill:#3aaf6c;fill-rule:nonzero;"/><path d="M134.202,140.616c-9.555,8.042 -21.682,12.471 -34.149,12.471c-15.723,0 -30.538,-6.891 -40.649,-18.906c-9.131,-10.848 -13.49,-24.601 -12.275,-38.73c1.214,-14.127 7.858,-26.936 18.709,-36.067c9.553,-8.041 21.682,-12.471 34.148,-12.471c15.722,0 30.536,6.89 40.648,18.903c18.848,22.396 15.964,55.951 -6.432,74.8m22.838,-88.607c-14.197,-16.865 -34.991,-26.538 -57.054,-26.538c-17.512,0 -34.543,6.218 -47.956,17.508c-15.231,12.818 -24.559,30.801 -26.263,50.635c-1.708,19.835 4.413,39.146 17.231,54.375c14.196,16.867 34.99,26.54 57.055,26.54c17.511,0 34.541,-6.218 47.958,-17.508c31.438,-26.462 35.489,-73.571 9.029,-105.012m-57.021,16.407c-17.443,0 -31.581,14.141 -31.581,31.583c0,17.443 14.138,31.582 31.581,31.582c17.443,0 31.581,-14.139 31.581,-31.582c0,-17.442 -14.138,-31.583 -31.581,-31.583" style="fill:#fff;fill-rule:nonzero;"/></g></svg>