<svg clip-rule="evenodd" fill-rule="evenodd" stroke-linejoin="round" stroke-miterlimit="2" viewBox="0 0 513 513" xmlns="http://www.w3.org/2000/svg" xmlns:xlink="http://www.w3.org/1999/xlink"><clipPath id="a"><path clip-rule="evenodd" d="m0 0h512.028v512.028h-512.028z"/></clipPath><path d="m0 0h512.028v512.028h-512.028z" fill="#fff"/><g clip-path="url(#a)"><path d="m0 0h512.028v512.028h-512.028z" fill="#fff"/><g fill-rule="nonzero"><path d="m490.161 247.937c4.452 4.454 4.452 11.672 0 16.124l-226.009 226.1c-4.451 4.452-11.667 4.452-16.118 0l-226.009-226.1c-4.45-4.452-4.45-11.67 0-16.122l226.009-226.1c4.452-4.452 11.667-4.452 16.118 0z" fill="#fff"/><path d="m254.686 33.017c8.229 0 16.291 1.229 23.982 3.532l-14.703-14.709c-4.452-4.453-11.667-4.453-16.117 0l-13.795 13.799c6.703-1.717 13.632-2.622 20.633-2.622" fill="#3daf6a"/><path d="m254.723 68.683c26.368 0 47.739 21.385 47.739 47.763 0 26.377-21.371 47.758-47.739 47.758s-47.739-21.381-47.739-47.758c0-26.378 21.371-47.763 47.739-47.763m.038 107.189c13.95 0 27.52-4.957 38.213-13.959 25.059-21.1 28.288-58.662 7.196-83.733-11.314-13.447-27.892-21.16-45.483-21.16-13.951 0-27.523 4.958-38.212 13.959-12.141 10.222-19.576 24.561-20.934 40.376-1.36 15.814 3.519 31.211 13.735 43.354 11.314 13.449 27.892 21.163 45.485 21.163" fill="#3daf6a"/><path d="m109.73 310.065c-11.496 0-22.731 3.374-32.312 9.598l8.472 8.475c7.025-4.069 15.176-6.41 23.876-6.41 26.368 0 47.741 21.387 47.741 47.763 0 8.704-2.34 16.858-6.405 23.885l8.481 8.483c13.853-21.366 12.852-50.162-4.368-70.632-11.316-13.449-27.893-21.162-45.485-21.162" fill="#3daf6a"/><path d="m352.549 369.495c0-26.378 21.373-47.763 47.739-47.763 9.159 0 17.714 2.586 24.98 7.06l8.435-8.438c-9.752-6.643-21.363-10.285-33.451-10.285-13.951 0-27.523 4.958-38.212 13.959-12.141 10.222-19.576 24.561-20.934 40.376-1.185 13.781 2.371 27.245 10.065 38.514l8.432-8.434c-4.471-7.27-7.054-15.826-7.054-24.989" fill="#3daf6a"/><path d="m489.974 247.937-155.383-155.446c9.209 30.894.017 65.739-26.166 87.785-.581.489-1.18.955-1.773 1.426l28.934 50.3-20.787 11.964-28.862-50.176c-9.846 3.978-20.427 6.086-31.176 6.086-10.648 0-21.029-2.026-30.671-5.832l-28.581 49.895-20.808-11.929 28.591-49.91c-4.477-3.515-8.637-7.494-12.374-11.936-14.343-17.047-21.192-38.663-19.282-60.865.396-4.607 1.181-9.117 2.292-13.511l-152.09 152.149c-4.451 4.454-4.451 11.672 0 16.124l38.353 38.368c14.304-10.576 31.692-16.367 49.538-16.367 10.648 0 21.027 2.024 30.669 5.83l24.082-42.041 20.807 11.929-24.091 42.055c4.479 3.514 8.638 7.493 12.376 11.935 10.377 12.335 16.544 26.828 18.685 41.721l52.188.002v23.991l-52.205-.002c-1.939 13.408-7.114 26.38-15.42 37.622l71.027 71.055c4.45 4.452 11.667 4.452 16.117 0l70.034-70.061c-8.721-11.41-14.245-24.641-16.246-38.611l-52.751-.003v-23.991l52.772.003c2.919-20.273 13.025-38.537 28.817-51.831.829-.699 1.675-1.373 2.529-2.036l-24.066-41.839 20.785-11.965 24.145 41.971c9.587-3.744 19.848-5.73 30.268-5.73 18.516 0 36.231 6.09 50.634 17.099l39.089-39.104c4.452-4.452 4.452-11.672 0-16.124" fill="#3daf6a"/></g></g></svg>