<svg clip-rule="evenodd" fill-rule="evenodd" stroke-linejoin="round" stroke-miterlimit="2" viewBox="0 0 33 33" xmlns="http://www.w3.org/2000/svg" xmlns:xlink="http://www.w3.org/1999/xlink"><clipPath id="a"><path clip-rule="evenodd" d="m0 0h32.003v32.003h-32.003z"/></clipPath><path d="m0 0h32.003v32.003h-32.003z" fill="none"/><g clip-path="url(#a)" fill-rule="nonzero"><path d="m0 29.807c0 1.213.983 2.196 2.196 2.196h27.611c1.213 0 2.196-.983 2.196-2.196v-27.611c0-1.213-.983-2.196-2.196-2.196h-27.611c-1.213 0-2.196.983-2.196 2.196v27.611z" fill="#3daf6a"/><path d="m21.475 22.501c-1.53 1.287-3.47 1.995-5.465 1.995-2.516 0-4.886-1.102-6.504-3.025-1.461-1.736-2.159-3.937-1.965-6.197.195-2.261 1.258-4.311 2.994-5.772 1.529-1.286 3.47-1.995 5.464-1.995 2.516 0 4.887 1.102 6.505 3.025 3.016 3.583 2.554 8.953-1.029 11.969m3.654-14.179c-2.272-2.698-5.599-4.246-9.13-4.246-2.802 0-5.527.995-7.673 2.801-2.438 2.051-3.93 4.929-4.203 8.103s.706 6.264 2.757 8.701c2.272 2.699 5.599 4.246 9.13 4.246 2.802 0 5.527-.995 7.674-2.801 5.031-4.234 5.679-11.773 1.445-16.804m-9.124 2.626c-2.791 0-5.054 2.262-5.054 5.053 0 2.792 2.263 5.054 5.054 5.054s5.053-2.262 5.053-5.054c0-2.791-2.262-5.053-5.053-5.053" fill="#fff"/></g></svg>