<svg clip-rule="evenodd" fill-rule="evenodd" stroke-linejoin="round" stroke-miterlimit="2" viewBox="0 0 834 834" xmlns="http://www.w3.org/2000/svg"><path d="m275.441 260.286c-13.294 11.188-30.165 17.35-47.509 17.35-21.873 0-42.484-9.587-56.551-26.302-12.702-15.092-18.767-34.226-17.076-53.881 1.689-19.654 10.932-37.474 26.027-50.177 13.29-11.187 30.164-17.349 47.507-17.349 21.872 0 42.482 9.585 56.549 26.298 26.222 31.157 22.209 77.838-8.947 104.061m31.771-123.27c-19.75-23.462-48.679-36.92-79.373-36.92-24.363 0-48.056 8.651-66.716 24.358-21.189 17.832-34.167 42.85-36.537 70.443-2.376 27.594 6.139 54.459 23.971 75.646 19.75 23.465 48.679 36.923 79.375 36.923 24.362 0 48.054-8.651 66.719-24.357 43.737-36.814 49.373-102.352 12.561-146.093m-79.327 22.825c-24.266 0-43.935 19.673-43.935 43.938 0 24.267 19.669 43.937 43.935 43.937s43.936-19.67 43.936-43.937c0-24.265-19.67-43.938-43.936-43.938" fill-rule="nonzero" transform="matrix(2.99502 0 0 2.99502 -265.774 -193.662)"/></svg>