<?xml version="1.0" encoding="UTF-8" standalone="no"?><!DOCTYPE svg PUBLIC "-//W3C//DTD SVG 1.1//EN" "http://www.w3.org/Graphics/SVG/1.1/DTD/svg11.dtd"><svg width="100%" height="100%" viewBox="0 0 1280 1280" version="1.1" xmlns="http://www.w3.org/2000/svg" xmlns:xlink="http://www.w3.org/1999/xlink" xml:space="preserve" style="fill-rule:evenodd;clip-rule:evenodd;stroke-linejoin:round;stroke-miterlimit:1.41421;"><rect id="ArtBoard1" x="0" y="0" width="1280" height="1280" style="fill:none;"/><clipPath id="_clip1"><rect id="ArtBoard11" x="0" y="0" width="1280" height="1280"/></clipPath><g clip-path="url(#_clip1)"><path d="M240.215,1195.66l0,-253.363l-48.751,0l-65.831,137.001l-66.188,-137.001l-48.751,0l0,253.363l49.463,0l0,-147.676l48.751,96.078l33.45,0l48.395,-96.078l0,147.676l49.462,0Z" style="fill:#201f1f;fill-rule:nonzero;"/><path d="M444.116,1010.27l-48.751,0l-37.008,114.583l-38.432,-114.583l-48.751,0l63.341,172.23l-7.829,22.774c-4.626,13.522 -9.964,16.725 -23.13,16.725l-10.675,0l0,41.634l18.148,0c15.301,0 29.179,-3.558 39.855,-14.234c5.693,-5.693 9.964,-13.522 13.878,-23.842l79.354,-215.287Z" style="fill:#201f1f;fill-rule:nonzero;"/><path d="M759.04,942.301l-51.598,0l-39.499,159.776l-46.26,-159.776l-37.008,0l-46.26,159.776l-39.143,-159.776l-51.598,0l67.611,253.363l41.278,0l46.616,-153.726l46.616,153.726l41.278,0l67.967,-253.363Z" style="fill:#201f1f;fill-rule:nonzero;"/><path d="M913.122,1195.66l0,-122.055c0,-43.414 -27.044,-65.476 -78.998,-65.476c-30.959,0 -48.751,5.694 -66.899,25.621l29.535,28.824c9.608,-11.032 17.792,-15.302 35.585,-15.302c24.553,0 34.517,8.896 34.517,29.18l0,9.252l-43.769,0c-43.058,0 -63.341,24.197 -63.341,53.732c0,16.369 5.338,31.315 15.301,41.635c11.032,11.031 26.333,16.369 47.328,16.369c21.351,0 33.094,-5.338 45.548,-17.793l0,16.013l45.193,0Zm-46.26,-68.322c0,11.387 -1.779,18.86 -6.761,23.486c-8.185,7.828 -16.369,8.896 -29.18,8.896c-18.148,0 -26.688,-8.541 -26.688,-21.351c0,-13.166 9.252,-20.995 25.977,-20.995l36.652,0l0,9.964Z" style="fill:#201f1f;fill-rule:nonzero;"/><path d="M1098.52,1025.57c-12.81,-12.81 -25.621,-17.436 -43.769,-17.436c-19.928,0 -37.72,9.252 -46.616,19.927l0,-17.792l-45.193,0l0,185.396l46.261,0l0,-111.736c0,-23.486 15.657,-34.161 29.891,-34.161c11.387,0 17.436,3.914 24.553,11.031l34.873,-35.229Z" style="fill:#201f1f;fill-rule:nonzero;"/><path d="M1280,1102.79c0,-27.756 -0.356,-59.426 -18.86,-77.93c-10.319,-10.32 -27.044,-16.725 -45.192,-16.725c-19.572,0 -33.45,5.338 -46.261,19.572l0,-17.437l-44.836,0l0,253.363l46.26,0l0,-84.336c12.099,13.523 25.977,18.504 44.837,18.504c18.148,0 34.873,-6.405 45.192,-16.724c18.504,-18.504 18.86,-50.531 18.86,-78.287Zm-46.26,0c0,30.247 -3.559,53.377 -31.315,53.377c-27.756,0 -31.314,-23.13 -31.314,-53.377c0,-30.247 3.558,-53.021 31.314,-53.021c27.756,0 31.315,22.774 31.315,53.021Z" style="fill:#201f1f;fill-rule:nonzero;"/><g id="Icon"><path d="M1082.04,435.116c8.407,8.408 8.407,22.034 0,30.438l-426.819,426.822c-8.405,8.405 -22.034,8.405 -30.438,0l-426.819,-426.822c-8.405,-8.404 -8.405,-22.03 0,-30.434l426.819,-426.822c8.408,-8.405 22.033,-8.405 30.438,0l426.819,426.818Z" style="fill:#fff;fill-rule:nonzero;"/><path d="M637.342,29.398c15.541,0 30.764,2.32 45.289,6.668l-27.765,-27.766c-8.408,-8.408 -22.034,-8.408 -30.438,0l-26.051,26.048c12.658,-3.241 25.743,-4.95 38.965,-4.95" style="fill:#3daf6a;fill-rule:nonzero;"/><path d="M637.411,96.728c49.796,0 90.156,40.369 90.156,90.165c0,49.793 -40.36,90.155 -90.156,90.155c-49.796,0 -90.155,-40.362 -90.155,-90.155c0,-49.796 40.359,-90.165 90.155,-90.165m0.072,202.347c26.345,0 51.973,-9.358 72.165,-26.352c47.325,-39.832 53.423,-110.739 13.59,-158.067c-21.367,-25.385 -52.675,-39.945 -85.895,-39.945c-26.345,0 -51.976,9.358 -72.162,26.352c-22.93,19.296 -36.969,46.363 -39.535,76.219c-2.568,29.852 6.645,58.918 25.938,81.841c21.367,25.389 52.675,39.952 85.899,39.952" style="fill:#3daf6a;fill-rule:nonzero;"/><path d="M363.592,552.399c-21.71,0 -42.928,6.37 -61.022,18.119l16.001,15.997c13.266,-7.68 28.658,-12.099 45.089,-12.099c49.796,0 90.158,40.373 90.158,90.166c0,16.43 -4.419,31.822 -12.095,45.089l16.016,16.013c26.161,-40.334 24.272,-94.694 -8.249,-133.336c-21.37,-25.388 -52.675,-39.949 -85.898,-39.949" style="fill:#3daf6a;fill-rule:nonzero;"/><path d="M822.155,664.589c0,-49.796 40.363,-90.165 90.156,-90.165c17.297,0 33.453,4.881 47.175,13.328l15.929,-15.929c-18.416,-12.542 -40.343,-19.417 -63.172,-19.417c-26.346,0 -51.976,9.359 -72.163,26.352c-22.929,19.297 -36.969,46.364 -39.534,76.22c-2.239,26.015 4.477,51.432 19.009,72.706l15.922,-15.923c-8.443,-13.723 -13.322,-29.875 -13.322,-47.172" style="fill:#3daf6a;fill-rule:nonzero;"/><path d="M1081.68,435.116l-293.441,-293.445c17.391,58.32 0.032,124.1 -49.414,165.718c-1.097,0.922 -2.229,1.802 -3.348,2.692l54.641,94.953l-39.256,22.586l-54.506,-94.72c-18.595,7.509 -38.577,11.488 -58.876,11.488c-20.109,0 -39.713,-3.824 -57.923,-11.009l-53.975,94.189l-39.295,-22.518l53.995,-94.219c-8.457,-6.635 -16.311,-14.146 -23.37,-22.531c-27.086,-32.182 -40.02,-72.988 -36.413,-114.9c0.748,-8.696 2.229,-17.21 4.329,-25.505l-287.224,287.221c-8.404,8.407 -8.404,22.033 0,30.438l72.431,72.431c27.012,-19.967 59.85,-30.898 93.552,-30.898c20.109,0 39.71,3.821 57.919,11.006l45.478,-79.364l39.295,22.519l-45.497,79.389c8.46,6.635 16.314,14.147 23.373,22.532c19.597,23.285 31.243,50.643 35.287,78.758l98.557,0.004l0,45.289l-98.589,-0.003c-3.662,25.31 -13.435,49.799 -29.122,71.021l134.135,134.134c8.405,8.405 22.034,8.405 30.438,0l132.259,-132.258c-16.47,-21.539 -26.902,-46.516 -30.681,-72.887l-99.621,-0.007l0,-45.289l99.66,0.006c5.512,-38.27 24.599,-72.748 54.422,-97.845c1.566,-1.32 3.164,-2.591 4.775,-3.843l-45.448,-78.982l39.253,-22.586l45.597,79.231c18.106,-7.069 37.483,-10.818 57.162,-10.818c34.966,0 68.423,11.497 95.622,32.278l73.819,-73.818c8.408,-8.405 8.408,-22.034 0,-30.438" style="fill:#3daf6a;fill-rule:nonzero;"/></g></g></svg>