<svg clip-rule="evenodd" fill-rule="evenodd" stroke-linejoin="round" stroke-miterlimit="2" viewBox="0 0 16 16" xmlns="http://www.w3.org/2000/svg"><path d="m0 0h16v16h-16z" fill="none"/><path d="m11.213 11.816c-.898.755-2.037 1.171-3.208 1.171-1.477 0-2.869-.647-3.819-1.776-.857-1.019-1.267-2.311-1.153-3.638s.738-2.531 1.758-3.389c.897-.755 2.037-1.171 3.208-1.171 1.477 0 2.868.647 3.818 1.776 1.771 2.104 1.5 5.256-.604 7.027m2.145-8.324c-1.333-1.585-3.287-2.493-5.359-2.493-1.645 0-3.245.584-4.505 1.644-1.431 1.204-2.308 2.894-2.468 4.757s.415 3.678 1.619 5.108c1.334 1.585 3.287 2.493 5.36 2.493 1.645 0 3.245-.584 4.505-1.644 2.954-2.486 3.334-6.912.848-9.865m-5.356 1.541c-1.639 0-2.967 1.328-2.967 2.967s1.328 2.967 2.967 2.967c1.638 0 2.967-1.328 2.967-2.967s-1.329-2.967-2.967-2.967" fill="#3daf6a" fill-rule="nonzero"/></svg>