<svg height="700pt" preserveAspectRatio="xMidYMid meet" viewBox="0 0 700 700" width="700pt" xmlns="http://www.w3.org/2000/svg"><g transform="matrix(.1 0 0 -.1 0 700)"><path d="m3328 6105c-2-1-39-6-83-9-127-11-349-51-450-82-520-160-889-392-1250-785-191-207-380-522-490-814-55-147-114-374-131-510-3-22-7-46-9-52-19-57-27-463-12-603 12-114 44-299 67-387 24-91 77-259 90-288 5-11 21-49 35-84 38-91 105-225 151-301 22-36 47-76 55-90s16-27 19-30 18-25 35-50c111-168 342-415 516-552 413-327 905-522 1421-564 76-6 356-6 409 0 24 3 69 8 99 11 30 2 82 9 115 15s74 13 90 16c17 3 57 12 90 21 33 8 67 16 75 18 48 10 262 85 359 126 161 68 428 222 529 304 10 8 53 43 97 78 315 254 569 596 753 1018 56 126 138 420 158 559 2 19 6 44 9 55 2 11 7 45 10 75s8 73 10 95c7 60 7 329 0 420-5 70-32 249-50 340-10 51-53 207-75 274-99 298-264 594-468 840-65 78-276 289-347 347-244 199-538 361-829 459-91 30-285 81-349 91-23 3-53 8-67 11-108 17-291 31-422 31-86 0-158-1-160-3zm399-758c5-3 31-8 58-11 427-57 874-315 1155-666 166-208 295-464 356-705 16-66 33-153 39-210 4-27 8-61 11-75 5-31 6-339 0-348-2-4-6-34-10-67-34-323-200-703-421-961-272-317-639-534-1050-620-30-6-107-19-185-30-43-6-327-6-355 0-11 2-49 7-85 12-36 4-67 8-70 9s-23 5-45 9c-142 28-363 108-502 182-397 212-715 579-869 1002-39 106-71 224-80 291-3 25-8 49-10 52-16 28-25 359-12 484 8 74 9 83 34 209 49 246 181 527 349 741 87 111 234 258 319 320 16 11 47 34 70 51 230 171 561 297 876 333 74 9 412 7 427-2z"/><path d="m3325 4593c-238-40-429-138-601-308-135-132-234-296-283-462-18-65-22-82-37-163-12-65-10-242 3-324 74-468 429-831 898-920 126-24 343-15 470 18 245 66 453 206 607 410 71 94 148 249 177 356 19 71 24 95 36 180 6 39 6 198 1 245-43 372-277 704-612 869-103 50-194 79-324 102-68 12-256 11-335-3z"/></g></svg>